# xmcd
#
# Track frame offsets: 
#        150
#        12787
#        23615
#        35197
#        43400
#        51532
#        66345
#        77132
#        88145
#        101292
#        113052
#        123307
#        134987
#        145755
#        158382
#        171095
#        183625
#        201457
#        216102
#        230247
#        240922
#        257345
#        272482
#        282107
#
# Disc length: 3997 seconds
#
# Revision: 0
# Processed by: cddbd v1.4PL0 Copyright (c) Steve Scherf et al.
# Submitted via: ExactAudioCopy v0.95a4
#
DISCID=5e0f9b18
DTITLE=The Sundowners - Chicago Country Legends
DYEAR=2003
DGENRE=Country
TTITLE0=Cimmaron
TTITLE1=It's My Way
TTITLE2=Around the World
TTITLE3=Tears
TTITLE4=What Where When
TTITLE5=Sidewalks of Chicago
TTITLE6=Little Green Valley
TTITLE7=Shenandoah Waltz
TTITLE8=Clementine
TTITLE9=Something
TTITLE10=I Remember You
TTITLE11=Big Wide World
TTITLE12=Here We Go Again
TTITLE13=Things
TTITLE14=Tom Dooley
TTITLE15=Miller's Cave
TTITLE16=Last Letter
TTITLE17=Little Pedro
TTITLE18=Empty Arms
TTITLE19=Don't Tell Me Your Troubles
TTITLE20=Guess My Eyes Were Bigger Than My Heart
TTITLE21=Just as Much as Ever
TTITLE22=Country Capers
TTITLE23=Cigarette State
EXTD=
EXTT0=
EXTT1=
EXTT2=
EXTT3=
EXTT4=
EXTT5=
EXTT6=
EXTT7=
EXTT8=
EXTT9=
EXTT10=
EXTT11=
EXTT12=
EXTT13=
EXTT14=
EXTT15=
EXTT16=
EXTT17=
EXTT18=
EXTT19=
EXTT20=
EXTT21=
EXTT22=
EXTT23=
PLAYORDER=
